<?xml version="1.0" encoding="UTF-8"?>
<!DOCTYPE svg PUBLIC "-//W3C//DTD SVG 1.1//EN" "http://www.w3.org/Graphics/SVG/1.1/DTD/svg11.dtd">
<!-- Creator: CorelDRAW -->
<svg xmlns="http://www.w3.org/2000/svg" xml:space="preserve" width="131.956mm" height="131.821mm" version="1.1" style="shape-rendering:geometricPrecision; text-rendering:geometricPrecision; image-rendering:optimizeQuality; fill-rule:evenodd; clip-rule:evenodd"
viewBox="0 0 1657.5 1655.82"
 xmlns:xlink="http://www.w3.org/1999/xlink"
 xmlns:xodm="http://www.corel.com/coreldraw/odm/2003">
 <defs>
  <style type="text/css">
   <![CDATA[
    .fil0 {fill:#F15A24;fill-rule:nonzero}
   ]]>
  </style>
 </defs>
 <g id="Layer_x0020_1">
  <metadata id="CorelCorpID_0Corel-Layer"/>
  <path class="fil0" d="M1053.06 1344.18c-8.56,-1.71 -27.4,-1.71 -44.52,-13.7 -311.64,-131.85 -537.66,-352.73 -667.8,-667.8 -41.1,-104.45 3.42,-191.78 109.59,-229.45 20.55,-8.56 41.09,-8.56 59.93,0 46.23,17.12 162.67,178.08 167.81,222.6 0,41.1 -23.97,61.64 -49.66,78.77 -47.94,29.11 -47.94,70.2 -27.4,114.72 44.52,104.45 123.29,176.37 224.31,219.17 35.96,15.41 70.21,15.41 94.18,-20.55 44.52,-70.2 101.03,-66.78 157.53,-22.26 29.11,18.84 61.64,37.67 90.75,59.93 39.38,32.53 87.33,58.22 65.07,126.71 -25.68,66.78 -107.87,131.85 -179.79,131.85zm-227.74 -928.07c219.17,8.56 407.53,207.19 402.39,422.94 0,22.26 11.99,51.37 -22.26,51.37 -30.82,0 -22.26,-34.25 -22.26,-51.37 -32.53,-231.16 -135.27,-339.04 -366.43,-373.28 -15.41,-6.85 -44.52,0 -42.81,-25.68 0,-37.67 35.96,-23.97 51.37,-23.97zm292.8 383.55c-5.14,13.7 6.85,42.81 -20.55,47.94 -34.25,1.71 -27.4,-27.4 -29.11,-47.94 -23.97,-138.7 -71.92,-188.35 -214.04,-222.6 -22.26,-3.42 -53.08,0 -46.23,-32.53 6.85,-30.82 32.53,-22.26 56.5,-18.84 138.7,18.84 253.42,142.12 253.42,273.97zm-106.16 -23.97c0,15.41 0,34.25 -23.97,37.67 -13.7,0 -23.97,-13.7 -27.4,-25.68 -1.71,-56.51 -35.96,-94.18 -94.18,-101.02 -15.41,-3.43 -34.25,-10.27 -25.68,-34.25 6.85,-15.41 20.55,-15.41 35.96,-15.41 61.64,-3.42 135.27,73.63 135.27,138.7zm-1011.97 51.37c0,457.18 369.86,828.75 828.75,828.75 458.9,0 828.75,-371.57 828.75,-828.75 0,-458.9 -369.86,-830.46 -828.75,-827.04 -458.9,1.71 -828.75,368.14 -828.75,827.04z"/>
 </g>
</svg>
