<?xml version="1.0" encoding="UTF-8"?>
<!DOCTYPE svg PUBLIC "-//W3C//DTD SVG 1.1//EN" "http://www.w3.org/Graphics/SVG/1.1/DTD/svg11.dtd">
<!-- Creator: CorelDRAW -->
<svg xmlns="http://www.w3.org/2000/svg" xml:space="preserve" width="131.956mm" height="131.821mm" version="1.1" style="shape-rendering:geometricPrecision; text-rendering:geometricPrecision; image-rendering:optimizeQuality; fill-rule:evenodd; clip-rule:evenodd"
viewBox="0 0 976.81 975.82"
 xmlns:xlink="http://www.w3.org/1999/xlink"
 xmlns:xodm="http://www.corel.com/coreldraw/odm/2003">
 <defs>
  <style type="text/css">
   <![CDATA[
    .fil0 {fill:#F15A24;fill-rule:nonzero}
   ]]>
  </style>
 </defs>
 <g id="Layer_x0020_1">
  <metadata id="CorelCorpID_0Corel-Layer"/>
  <path class="fil0" d="M715.45 265.41c12.11,0 24.22,4.04 33.3,13.12 11.1,11.1 14.13,22.2 14.13,34.31l0 355.2c0,14.13 -3.03,23.21 -14.13,33.3 -9.08,11.1 -21.19,15.14 -33.3,15.14 -76.69,0 -152.37,0 -229.07,0 -75.68,0 -152.37,0 -227.05,0 -14.13,0 -26.24,-5.05 -35.32,-15.14 -11.1,-9.08 -13.12,-19.17 -13.12,-33.3l0 -355.2c0,-12.11 2.02,-23.21 13.12,-34.31 9.08,-9.08 21.19,-13.12 35.32,-13.12l456.11 0zm-193.75 295.67l199.8 -213.93c5.05,-5.04 7.06,-11.1 2.02,-15.14 -7.06,-3.03 -12.11,-2.02 -20.18,6.05l-178.61 167.51c-10.09,13.12 -24.22,19.17 -38.35,19.17 -15.14,0 -27.25,-6.05 -38.35,-19.17l-178.61 -167.51c-8.07,-8.07 -14.13,-11.1 -20.18,-6.05 -4.04,4.04 -3.03,10.09 3.03,15.14l198.79 213.93c9.08,13.12 21.19,20.18 35.32,20.18 14.13,0 26.24,-7.06 35.32,-20.18zm-521.71 -73.66c0,269.43 217.97,488.41 488.41,488.41 270.44,0 488.4,-218.98 488.4,-488.41 0,-270.44 -217.97,-489.41 -488.4,-487.4 -270.44,1.01 -488.41,216.96 -488.41,487.4z"/>
 </g>
</svg>
