<svg width="5" height="5" viewBox="0 0 45 70" fill="none" xmlns="http://www.w3.org/2000/svg">
<path d="M18.4999 34.975C17.2177 34.9753 15.9825 34.4926 15.0402 33.6231C14.098 32.7536 13.5178 31.5611 13.4152 30.283C10.014 29.0791 7.14743 26.7123 5.32156 23.6004C3.49569 20.4885 2.82791 16.8316 3.4361 13.2752C4.04428 9.71885 5.88932 6.49167 8.64553 4.16335C11.4017 1.83504 14.8919 0.555303 18.4999 0.550049C22.3374 0.549493 26.035 1.99102 28.8594 4.5888C31.6839 7.18658 33.4291 10.7509 33.7489 14.575C33.7596 14.7409 33.7356 14.9072 33.6785 15.0633C33.6215 15.2194 33.5326 15.362 33.4174 15.4819C33.3023 15.6018 33.1635 15.6964 33.0099 15.7598C32.8562 15.8232 32.6911 15.8539 32.5249 15.85C32.1835 15.8409 31.8577 15.7055 31.6104 15.47C31.3631 15.2345 31.2119 14.9156 31.1861 14.575C30.959 12.3204 30.1351 10.1671 28.7993 8.33666C27.4635 6.50625 25.6639 5.06492 23.586 4.16107C21.508 3.25722 19.2267 2.92349 16.9769 3.19426C14.7271 3.46502 12.5901 4.33049 10.7859 5.70156C8.98174 7.07263 7.57556 8.89976 6.71215 10.9948C5.84873 13.0899 5.55929 15.3773 5.8736 17.6214C6.18791 19.8655 7.09463 21.9854 8.5004 23.7626C9.90618 25.5399 11.7602 26.9104 13.8717 27.733C14.2558 26.9029 14.8562 26.1914 15.6099 25.673C16.3636 25.1546 17.2428 24.8485 18.1555 24.7867C19.0681 24.7249 19.9806 24.9097 20.7973 25.3217C21.614 25.7338 22.3048 26.3579 22.7974 27.1287C23.29 27.8994 23.5662 28.7885 23.5971 29.7027C23.628 30.617 23.4125 31.5227 22.9731 32.3249C22.5336 33.1272 21.8865 33.7966 21.0995 34.2628C20.3125 34.7291 19.4146 34.9751 18.4999 34.975ZM5.77285 28.6H6.0049C6.9994 29.5716 8.10355 30.4284 9.2995 31.15H5.77285C4.3423 31.15 3.1999 32.2899 3.1999 33.7C3.1999 37.038 4.786 39.5242 7.46605 41.2302C10.1946 42.9718 14.0757 43.9 18.4999 43.9C22.9242 43.9 26.8052 42.9718 29.5337 41.2302C32.2112 39.5217 33.7999 37.0405 33.7999 33.7C33.7999 33.0237 33.5312 32.3751 33.053 31.8969C32.5748 31.4187 31.9262 31.15 31.2499 31.15H26.0453C26.1872 30.306 26.1872 29.4441 26.0453 28.6H31.2499C32.6025 28.6 33.8997 29.1374 34.8561 30.0938C35.8126 31.0502 36.3499 32.3474 36.3499 33.7C36.3499 38.0121 34.2257 41.2634 30.9056 43.3824C27.6365 45.4658 23.2302 46.45 18.4999 46.45C13.7697 46.45 9.36325 45.4658 6.09415 43.3824C2.77405 41.2659 0.649902 38.0095 0.649902 33.7C0.649902 30.8619 2.95255 28.6 5.77285 28.6ZM28.6999 15.85C28.7012 17.5756 28.2643 19.2733 27.4303 20.7839C26.5963 22.2945 25.3924 23.5686 23.9314 24.4869C23.2504 23.8008 22.4457 23.2497 21.5599 22.8625C23.1707 22.1595 24.4903 20.9233 25.2968 19.3618C26.1033 17.8003 26.3476 16.0087 25.9885 14.2882C25.6295 12.5678 24.6889 11.0235 23.3251 9.91491C21.9613 8.80636 20.2574 8.20121 18.4999 8.20121C16.7424 8.20121 15.0385 8.80636 13.6747 9.91491C12.3109 11.0235 11.3703 12.5678 11.0113 14.2882C10.6522 16.0087 10.8965 17.8003 11.703 19.3618C12.5095 20.9233 13.8291 22.1595 15.4399 22.8625C14.5474 23.2527 13.7442 23.806 13.0684 24.4869C11.1331 23.267 9.66245 21.4337 8.8915 19.2798C8.49843 18.1791 8.29829 17.0188 8.2999 15.85C8.2999 13.1448 9.37454 10.5504 11.2874 8.63756C13.2003 6.72469 15.7947 5.65005 18.4999 5.65005C21.2051 5.65005 23.7995 6.72469 25.7124 8.63756C27.6253 10.5504 28.6999 13.1448 28.6999 15.85Z" fill="white"/>
</svg>
