<svg width="38" height="38" viewBox="0 0 38 38" fill="none" xmlns="http://www.w3.org/2000/svg">
<path d="M35 34.9995L27.2792 27.2787M27.2792 27.2787C28.5999 25.958 29.6475 24.3902 30.3622 22.6646C31.077 20.9391 31.4449 19.0897 31.4449 17.2219C31.4449 15.3542 31.077 13.5048 30.3622 11.7793C29.6475 10.0537 28.5999 8.48584 27.2792 7.16516C25.9585 5.84449 24.3907 4.79687 22.6651 4.08213C20.9396 3.36739 19.0901 2.99951 17.2224 2.99951C15.3547 2.99951 13.5053 3.36739 11.7797 4.08213C10.0542 4.79687 8.48633 5.84449 7.16565 7.16516C4.49843 9.83239 3 13.4499 3 17.2219C3 20.994 4.49843 24.6115 7.16565 27.2787C9.83287 29.9459 13.4504 31.4444 17.2224 31.4444C20.9944 31.4444 24.612 29.9459 27.2792 27.2787Z" stroke="#F15A24" stroke-width="5" stroke-linecap="round" stroke-linejoin="round"/>
</svg>
