<?xml version="1.0" encoding="UTF-8"?>
<!DOCTYPE svg PUBLIC "-//W3C//DTD SVG 1.1//EN" "http://www.w3.org/Graphics/SVG/1.1/DTD/svg11.dtd">
<!-- Creator: CorelDRAW -->
<svg xmlns="http://www.w3.org/2000/svg" xml:space="preserve" width="245.082mm" height="71.6226mm" version="1.1" style="shape-rendering:geometricPrecision; text-rendering:geometricPrecision; image-rendering:optimizeQuality; fill-rule:evenodd; clip-rule:evenodd"
viewBox="0 0 5563.58 1625.9"
 xmlns:xlink="http://www.w3.org/1999/xlink"
 xmlns:xodm="http://www.corel.com/coreldraw/odm/2003">
 <defs>
  <style type="text/css">
   <![CDATA[
    .fil1 {fill:#F05923}
    .fil2 {fill:#FEFEFE}
    .fil0 {fill:white}
   ]]>
  </style>
 </defs>
 <g id="Layer_x0020_1">
  <metadata id="CorelCorpID_0Corel-Layer"/>
  <g id="_2769500603232">
   <path class="fil0" d="M1004.32 924.71c-53.69,0 -43.98,-61.24 -6.12,-61.24 22.46,0 41.24,28.75 23.28,50.84 -2.94,3.62 -12.05,10.4 -17.16,10.4zm419.49 -358.25c0,-47.56 61.24,-36.32 61.24,-9.18 0,16.03 2.32,20.76 -11.29,31.62 -23.35,18.64 -49.95,-4.37 -49.95,-22.43zm-287.82 -248l-229.65 0c5.53,13.21 4.69,3.15 35.94,6.91 83.15,10.02 181.36,62.21 231.81,129.5 12.65,16.87 21.63,31.47 34.09,48.58 13.07,17.96 51.62,88.19 53.34,108.93l-140.85 39.81c-49.7,12.51 -99.76,20.33 -155.21,28.51 -161.77,23.84 -342.59,8.99 -499.76,-22.67 -51.7,-10.42 -96.1,-24.12 -145.26,-38.46 -29.45,-8.59 -47.09,-14.9 -63.34,11.1 -13.25,21.2 -5.77,44.04 23.62,56.19 22.26,9.2 129.31,38.47 144.9,38.82 2.52,30.25 20.09,103.61 30.62,125.54 -23.18,-1.93 -65.76,-21.78 -82.79,12.15 -7.4,14.74 -2.11,36.09 7.06,45.21 10.14,10.09 26.79,10.91 44.27,13.9 13.77,2.36 31.11,5.86 46.86,8.27 28.58,4.37 20.79,5.05 33.57,24.6 31.58,48.31 62.14,84.89 108.49,121.16 124.46,97.42 300.21,126.37 448.38,71.28 26.68,-9.92 52.99,-22.71 76.87,-36.43 44.76,-25.72 90.04,-68.12 120.88,-108.77 52.67,-69.42 84.39,-165.27 84.39,-261.61 -16.38,3.82 -40.21,29.81 -76.55,30.62 -4.51,19.35 -5.22,39.64 -10.36,60.07 -12.66,50.31 -39.18,107.97 -73.04,144.36 -184.97,198.8 -484.59,132.43 -593.29,-29.89 22.63,0.5 54.9,6.27 79.59,6.15 94.38,-0.49 110.52,3.55 205.01,-9.37 12.48,-1.7 27.43,-5.68 39.96,-5.96 11.1,47.63 114.4,85.24 164.08,4.86 4.6,-7.44 8.66,-20.99 10.09,-29.8 17.4,-107.12 -121.26,-155.08 -173.88,-63.57 -7.64,13.29 -6.67,12.11 -24.37,15.44 -56.68,10.66 -156,18.56 -212.14,12.28 -14.16,-1.58 -128.75,-3.75 -137.98,-15.12 -4.67,-5.75 -18.01,-45.06 -21.19,-55.35 -5.88,-19.01 -10.08,-40.9 -14.91,-61.64 14.79,0 30.96,4.13 45.47,6.59 14.07,2.38 30.23,4.08 46.13,5.92 103.49,11.97 196.93,17.33 300.8,6.33l94.64 -9.47c81.36,-11.27 184.79,-33.54 262,-59.51 53.37,-17.95 86.65,-33.27 133.74,-50.33 26.31,-9.53 39.72,33.75 105.06,7.44 90.76,-36.55 62.75,-175.25 -26.29,-179.58 -60.08,-2.92 -96,29.52 -105.11,82.12 -5.45,31.48 7.93,11.36 -29.7,31.27 -3.48,-41.76 -69.68,-141.76 -103.16,-181.6 -10.8,-12.85 -16.05,-18.68 -27.74,-30.44 -20.09,-20.2 -40.97,-36.1 -65.07,-54.33z"/>
   <path class="fil1" d="M3163 440.92c99.44,0 156.16,68.31 156.16,168.41l-330.69 0c0,-59.07 42.35,-130.8 102.28,-154.93 18.65,-7.51 47.72,-13.48 72.25,-13.48zm-358.25 223.52c0,109.35 15.95,188.49 75.27,273.8 32.34,46.51 75.58,77.61 126.78,102.87 96.53,47.62 251.13,42.45 346.05,-0.05 37.31,-16.7 97.07,-52.36 119.42,-85.73 -3.08,-11.53 -33.4,-47.44 -42.41,-58.64 -58.75,-73.1 -109.32,37.21 -220.92,37.21 -49.4,0 -74.25,2.75 -120.47,-20.37 -107.32,-53.71 -97.92,-176.9 -106.11,-193.96l422.56 0.01c57.26,0.21 76.54,-2.35 76.54,-64.31 0,-136.07 -48.56,-252.09 -171.42,-312.37 -105.62,-51.82 -264.09,-37.57 -360.1,31.93 -9.84,7.13 -14.76,11.75 -23.65,19.22 -25.15,21.14 -22.91,18.56 -43.69,45.1 -18.62,23.79 -36.27,52.47 -47.7,80.9 -15.09,37.52 -30.14,91.15 -30.14,144.39z"/>
   <path class="fil1" d="M1579.97 765.49c0,92.91 15.84,165.48 56.38,219.19 62.6,82.93 174.59,107.16 273.73,80.3 87.17,-23.61 103.98,-60.06 150.61,-91.28 0,29.82 8.89,88.8 52.05,88.8l113.29 0 0 -737.93 -180.66 0 0 529.72c0,17.68 -85.1,79.61 -159.22,79.61 -86.77,0 -125.54,-54.12 -125.54,-140.85l0 -468.48 -180.65 0 0 440.92z"/>
   <path class="fil1" d="M4943.52 6.11l120.97 0 0 119.45c-34.59,0 -82.78,4.17 -115.13,-2.72 -1.46,-0.31 -4.08,-0.35 -5.83,-0.35l0 -116.37zm7.49 -6.11l119.58 0 0 624.64c48.33,0 51.23,5.85 77.33,-20.65l209.72 -225.08c8.44,-8.35 14.63,-14.52 22.97,-22.96 21.67,-21.91 27.44,-25.5 69.64,-25.28 31.63,0.17 63.3,0.02 94.94,0.02 -4.19,15.67 -26.68,29.85 -37.49,42.13l-268.71 285.5c5.65,7.71 14.71,11.73 23.22,22.71l60.41 77.37c14.45,17.85 26.28,33.07 40.58,51.28 34.9,44.41 176.1,216.6 200.35,252.82 -35.71,0 -71.51,-0.25 -107.21,0.05 -34.49,0.28 -44.16,-6.92 -67.34,-36.77l-233.01 -290.58c-21.01,-26.02 -42.54,-18.7 -85.41,-18.7l0 346 -131.66 0c0,-177.59 0,-355.18 0,-532.78 0,-160.23 2.46,-339.59 -0.09,-499.22 -0.45,-27.98 -0.49,-22.38 4.68,-24.39 4.62,-8.53 -9.03,-5.13 7.49,-6.11z"/>
   <path class="fil1" d="M2409.76 327.63c-18.16,4.23 -37.35,6.88 -57.67,9.7 -18.81,2.61 -40.67,8.67 -61.75,8.67 0,114.61 -12.51,111.77 85.91,110.05 33.87,-0.59 24.32,-2.41 24.32,95.1 0,79.61 0,159.22 0,238.83 0,92.37 -6.8,146.42 30.76,205.01 57.94,90.37 191.72,94.87 280.73,60.55 24.91,-9.61 67.93,-29.49 80.44,-48.16l-48.34 -80.26c-29.82,-48.4 -48.66,0.65 -92.5,0.65 -23.56,0 -43.8,1.17 -60.04,-22.64 -9.11,-13.36 -13.45,-29.71 -13.45,-50.85l0 -398.06 195.96 0 0 -119.42c0,-7.06 -2.13,-9.18 -9.18,-9.18l-186.78 0 0 -229.65c-42.61,0 -104.72,-7.46 -123.4,11.33 -13.91,13.99 -29.22,126.03 -34.55,152.23 -3.97,19.48 -10.46,46.24 -10.46,66.09z"/>
   <path class="fil1" d="M4317.36 434.8c-24.22,-103.97 20.74,-104.11 -122.48,-104.11l0 731.81 128.6 0 0 -532.78c0,-14.95 97.88,-104.1 180.66,-104.1 55.84,0 94.4,0.27 133.87,46.78 20.54,24.19 34.53,71.23 34.53,115.5l0 474.6 131.66 0 0 -440.92c0,-90.71 -15.62,-155.97 -52.6,-210.73 -30.67,-45.44 -98.46,-89.34 -173.99,-89.34 -98.56,0 -140.62,12.25 -215.3,72.52 -15.88,12.81 -31.35,31.65 -44.96,40.77z"/>
   <path class="fil1" d="M168.41 453.17c0,-25.28 -5.84,-56.15 -8.97,-79.83 -3.78,-28.58 -11.28,-48.77 -43.09,-48.77l-116.35 0 0 737.93 180.66 0 0 -456.23c0,-20.48 57.74,-122.48 153.1,-122.48 109.3,0 106.43,44.45 123.79,-59.93 4.57,-27.44 14,-62.88 14,-90.11 -43.09,-22.8 -49.31,-24.5 -101.04,-24.5 -123.16,0 -188.29,133.8 -202.09,143.91z"/>
   <path class="fil1" d="M3588.62 1062.5l131.67 0 0 -1053.31c0,-6.95 -2.07,-9.12 -8.86,-9.18l-0.33 0 -122.48 0 0 1062.5z"/>
   <path class="fil2" d="M976.76 523.59c0,-37.57 61.24,-46.03 61.24,3.06 0,35.63 -61.24,39.66 -61.24,-3.06zm-70.42 -205.13l229.65 0c-43.69,-19.72 -49.48,-37.73 -131.66,-58.2 -134.83,-33.59 -269.95,-3.24 -380.14,79.18l-98.88 94.03 -39.77 58.21c-14.68,23.7 -27.17,40.41 -2.77,63.56 11.33,10.76 17.82,9.44 35.96,13.03 81.86,16.19 142.31,16.57 225.32,16.57 15.86,0 32.6,1.3 48.16,-0.84l135.56 -11.41c10.15,15.15 14.95,22.37 31.8,32.51 85.91,51.64 182.4,-52.29 125.71,-134.9 -35.29,-51.42 -122.55,-64.27 -162.43,14.8 -7.32,14.51 -12.36,15.24 -47.22,17.08 -18.54,0.98 -41.25,1.44 -60.7,3.6 -19.58,2.17 -37.85,2.62 -61.76,2.54 -12.9,-0.05 -20.96,1.69 -28.34,2.31l-92.79 -3.52c-15.9,-2.33 -49.38,-3.07 -59.46,-7.9 6.58,-24.66 92.45,-101.42 131.66,-122.49 15.21,-8.17 24.65,-14.58 42.43,-21.87 15.11,-6.19 29.93,-12.17 46.73,-17.58 48.16,-15.51 89.32,-9.59 112.94,-18.71z"/>
   <path class="fil1" d="M3897.87 339.88l0 722.62 131.66 0 0 -722.62c0,-7.06 -2.13,-9.19 -9.19,-9.19l-113.29 0c-7.06,0 -9.19,2.13 -9.19,9.19z"/>
   <path class="fil2" d="M3821.32 1436.06c0,36.48 -0.45,57.44 16.29,90.88 17.02,34.01 26.76,45.33 55.39,67.09 24.68,18.76 56.48,29.6 89.96,31.87l26.69 0c51.47,-3.45 103.5,-26.89 137.2,-72.53 32.09,-43.47 23.54,-67.35 23.54,-129.56l-186.78 0 0 64.3 107.17 0c-2.31,9.9 -7.28,19.23 -12.97,26.83 -0.06,0.08 -3.66,4.51 -4.14,5.04 -5.05,5.64 -0.5,1.09 -6.15,6.1 -5.19,4.59 -6.36,5.35 -12.13,9.3 -37.13,25.39 -145.27,20.14 -145.27,-84.03 0,-56.89 28.01,-104.11 79.61,-104.11 41.21,0 55.87,1.29 79.61,36.74l94.92 0c-7.57,-90.9 -135.8,-145.95 -234.54,-105.93 -62.14,25.18 -108.4,83.01 -108.4,157.99z"/>
   <path class="fil2" d="M4620.49 1454.43c0,-61.97 24.7,-107.68 92.15,-109.67 50.65,-1.49 91.57,40.76 91.57,91.29l0 18.37c0,121.57 -183.72,121.42 -183.72,0zm-88.79 -21.43l0 21.43c0,91.94 79.53,171.47 171.47,171.47 81.79,0 140.07,-31.93 172.54,-99.97 49.73,-104.21 -3.19,-261.34 -172.54,-261.34 -47.46,0 -93.35,26.36 -118.72,49.69 -24.78,22.8 -52.75,71.89 -52.75,118.72z"/>
   <path class="fil2" d="M4363.29 1426.87l-58.18 0 0 -85.74c23.38,0 67.26,-3.43 83.41,8.45 22.78,16.77 23.48,77.29 -25.23,77.29zm-146.97 -150.04l0 346 88.79 0 0 -131.66 21.43 0c3.01,12.92 42.66,79.84 52.04,98 5.75,11.14 12.21,21.99 18.39,33.66l97.98 0 -79.61 -140.85c21.57,-1.8 40.97,-19.67 52.82,-32.91 38.91,-43.46 30.82,-127.68 -25.35,-159.91 -51.24,-29.4 -147.78,-21.52 -217.32,-21.52 -7.06,0 -9.18,2.13 -9.18,9.19z"/>
   <path class="fil2" d="M4938.94 1491.17c0,40.79 16.62,72.99 37.44,94.22 23.37,23.83 55.61,37.08 89.38,40.51l35.75 0c37.41,-3.73 73.54,-19.08 98.54,-45.08 23.12,-24.04 35.9,-61.74 35.9,-108.01l0 -195.97c0,-16.18 -34.68,-9.19 -79.61,-9.19 -15.25,0 -9.18,47.69 -9.18,76.55 0,34.07 4.12,144.98 -5.66,168.87 -4.6,11.24 -9.07,17.5 -19.65,23.22 -27.98,15.13 -63.92,12.97 -84.2,-12.16 -9.6,-11.91 -12.98,-36.48 -12.98,-57.45l0 -199.03 -85.73 0 0 223.52z"/>
   <path class="fil2" d="M5438.04 1426.87l-58.18 0 0 -88.8c46.71,0 94.92,-5.92 94.92,45.93 0,22.96 -14.93,42.87 -36.74,42.87zm125.54 -53.24l0 18.26c-2.31,31.62 -16.55,61.38 -39.75,77.9 -46.25,32.95 -86.86,27.5 -143.97,27.5l0 125.54 -85.74 0 0 -355.19c67.94,0 177.09,-8.47 224.03,23.99 28.91,19.99 43.12,50.84 45.42,82z"/>
   <path class="fil1" d="M3873.38 101.04c0,55.95 46.83,94.92 88.8,94.92 83.14,0 126.87,-98.79 68.22,-157.02 -59.02,-58.61 -157.02,-16.02 -157.02,62.1z"/>
   <path class="fil1" d="M4943.52 6.11l0 116.37c1.75,0.01 4.37,0.04 5.83,0.35 32.36,6.89 80.54,2.72 115.13,2.72l0 -119.45 -120.97 0z"/>
   <path class="fil2" d="M260.27 845.1c0,63.12 76.55,49.54 76.55,9.18 0,-61.8 -76.55,-49.94 -76.55,-9.18z"/>
  </g>
 </g>
</svg>
