<svg width="81" height="73" viewBox="0 0 81 73" fill="none" xmlns="http://www.w3.org/2000/svg">
<path d="M44.4582 52.3333H36.5415C34.3644 52.3333 32.5832 50.5521 32.5832 48.375H4.91442V64.2083C4.91442 68.5625 8.47692 72.125 12.8311 72.125H68.2082C72.5623 72.125 76.1248 68.5625 76.1248 64.2083V48.375H48.4165C48.4165 50.5521 46.6353 52.3333 44.4582 52.3333ZM72.1665 16.7083H56.3332C56.3332 7.96042 49.2478 0.875 40.4998 0.875C31.7519 0.875 24.6665 7.96042 24.6665 16.7083H8.83317C4.479 16.7083 0.916504 20.2708 0.916504 24.625V36.5C0.916504 40.8937 4.43942 44.4167 8.83317 44.4167H32.5832V40.4583C32.5832 38.2812 34.3644 36.5 36.5415 36.5H44.4582C46.6353 36.5 48.4165 38.2812 48.4165 40.4583V44.4167H72.1665C76.5207 44.4167 80.0832 40.8542 80.0832 36.5V24.625C80.0832 20.2708 76.5207 16.7083 72.1665 16.7083ZM32.5832 16.7083C32.5832 12.3542 36.1457 8.79167 40.4998 8.79167C44.854 8.79167 48.4165 12.3542 48.4165 16.7083H32.5436H32.5832Z" fill="#F15A24"/>
</svg>
