<svg width="69" height="83" viewBox="0 0 69 83" fill="none" xmlns="http://www.w3.org/2000/svg">
<path d="M28.2808 54.3996L28.2604 54.3521C27.8508 54.2553 27.4436 54.149 27.039 54.0332L27.0084 54.023C23.1382 52.9105 19.5639 50.9507 16.5449 48.2857C13.2246 45.3567 10.6712 41.6599 9.1074 37.5177C7.5436 33.3755 7.01684 28.9136 7.57305 24.5212C8.12926 20.1287 9.75156 15.9389 12.2985 12.3172C14.8454 8.69556 18.2396 5.75192 22.1852 3.74297C26.1308 1.73403 30.5079 0.720776 34.9349 0.791572C39.3619 0.862368 43.7044 2.01506 47.5837 4.14914C51.463 6.28322 54.7614 9.33389 57.1912 13.0352C59.621 16.7364 61.1085 20.9759 61.524 25.3839C61.6563 26.7852 60.5061 27.9286 59.0981 27.9286C57.6934 27.9286 56.5704 26.7852 56.4075 25.3873C55.959 21.5306 54.5002 17.8607 52.1787 14.7485C49.8571 11.6364 46.7551 9.19227 43.1861 7.66331C39.6171 6.13435 35.7077 5.57472 31.8532 6.041C27.9986 6.50728 24.3354 7.98294 21.234 10.3188C18.1325 12.6547 15.7027 15.7679 14.1902 19.3439C12.6777 22.9199 12.1361 26.8318 12.6201 30.6842C13.1041 34.5366 14.5966 38.1929 16.9467 41.2836C19.2968 44.3742 22.4213 46.7897 26.0041 48.2857L26.1399 48.3434C26.8184 48.6216 27.5151 48.867 28.2299 49.0796C28.8304 47.6286 29.9156 46.4307 31.3006 45.6903C32.6855 44.9498 34.2844 44.7127 35.8247 45.0193C37.3649 45.3259 38.7511 46.1573 39.7469 47.3716C40.7427 48.586 41.2865 50.1081 41.2856 51.6786C41.2871 53.2381 40.7514 54.7505 39.7686 55.9614C38.7859 57.1722 37.416 58.0076 35.8896 58.327C34.3631 58.6464 32.7733 58.4303 31.3875 57.715C30.0017 56.9997 28.9046 55.8289 28.2808 54.3996ZM24.9354 58.7154C18.9081 56.8409 13.5639 53.2379 9.56575 48.3536C7.088 48.6438 4.8031 49.8338 3.14498 51.6978C1.48685 53.5617 0.570982 55.9696 0.571289 58.4643V60.8902C0.571289 73.5048 14.8552 82.2143 34.4999 82.2143C54.1445 82.2143 68.4284 73.0264 68.4284 60.8902V58.4643C68.4284 55.7648 67.356 53.1758 65.4472 51.267C63.5383 49.3581 60.9494 48.2857 58.2499 48.2857H45.8829C46.6832 50.9662 46.5116 53.8431 45.3982 56.4094C44.2848 58.9757 42.3012 61.0666 39.797 62.3134C37.2928 63.5602 34.4289 63.8829 31.71 63.2247C28.9912 62.5665 26.592 60.9695 24.9354 58.7154ZM51.4641 27.9286C51.4641 22.7986 49.1909 18.2013 45.5911 15.09C43.7849 13.5319 41.6704 12.3722 39.3857 11.6866C37.1009 11.0011 34.6973 10.805 32.3316 11.1114C29.966 11.4177 27.6915 12.2195 25.6567 13.4644C23.622 14.7093 21.8726 16.3693 20.5228 18.3361C19.1731 20.3029 18.2533 22.5322 17.8235 24.8786C17.3937 27.2249 17.4636 29.6356 18.0285 31.9531C18.5935 34.2706 19.6409 36.4429 21.1023 38.3283C22.5637 40.2136 24.4062 41.7695 26.5097 42.8945C28.6957 40.9058 31.5447 39.8038 34.4999 39.8036C37.4562 39.8029 40.3066 40.9051 42.4934 42.8945C45.2041 41.4464 47.4704 39.2892 49.0504 36.6533C50.6304 34.0174 51.4647 31.0018 51.4641 27.9286Z" fill="#F15A24"/>
</svg>
